nColumns=19
nRows=75
DataType=double
version=3
OpenSimVersion=4.1
endheader
time	ground_force_calcn_l_vx	ground_force_calcn_l_vy	ground_force_calcn_l_vz	ground_force_calcn_l_px	ground_force_calcn_l_py	ground_force_calcn_l_pz	ground_force_calcn_l_mx	ground_force_calcn_l_my	ground_force_calcn_l_mz	ground_force_calcn_r_vx	ground_force_calcn_r_vy	ground_force_calcn_r_vz	ground_force_calcn_r_px	ground_force_calcn_r_py	ground_force_calcn_r_pz	ground_force_calcn_r_mx	ground_force_calcn_r_my	ground_force_calcn_r_mz
8.3625	-97.9291	667.304	-42.9286	-0.0561434	-6.17316e-18	0.0646986	0.822772	-5.6065	0.360674	-3.378	120.963	-7.5067	-0.436223	-4.84067e-17	-0.0739286	0.0116638	-0.417673	0.0259198
8.37249	-100.903	639.926	-40.2986	-0.0501494	-5.50641e-18	0.0630451	0.884457	-5.60921	0.353234	1.90253	152.439	-6.57545	-0.419116	-4.65468e-17	-0.0702208	0.00617991	0.495162	-0.0213588
8.38248	-102.654	608.059	-37.1985	-0.0441323	-4.83711e-18	0.0613509	0.94562	-5.60129	0.342664	8.79037	187.329	-4.8359	-0.405523	-4.50471e-17	-0.0672012	0.0768774	1.63832	-0.042293
8.39247	-102.993	571.827	-33.6564	-0.0380717	-4.16315e-18	0.0596682	1.00342	-5.57109	0.327901	17.0348	225.291	-2.3244	-0.394968	-4.38655e-17	-0.0649874	0.226225	2.99192	-0.0308686
8.40246	-101.748	531.603	-29.7102	-0.0320652	-3.49582e-18	0.0580299	1.05172	-5.49494	0.307101	26.2518	265.689	0.869532	-0.387044	-4.29644e-17	-0.0636104	0.447629	4.53035	0.0148267
8.41246	-98.759	487.897	-25.4557	-0.0262843	-2.85482e-18	0.0563686	1.07952	-5.33314	0.278253	36.0294	307.601	4.60621	-0.381378	-4.23084e-17	-0.063035	0.714605	6.10094	0.0913593
8.42245	-93.9691	441.268	-21.0127	-0.020805	-2.2489e-18	0.0546081	1.08289	-5.0851	0.242147	45.8754	350.022	8.68376	-0.377363	-4.18356e-17	-0.0631417	1.0004	7.63287	0.189365
8.43244	-87.4916	392.561	-16.573	-0.0156769	-1.68372e-18	0.0526389	1.05962	-4.75436	0.200717	55.2893	391.922	12.8813	-0.374414	-4.14839e-17	-0.0636968	1.28037	9.07599	0.298301
8.44243	-79.4275	342.953	-12.3888	-0.0110534	-1.17638e-18	0.0502857	1.00599	-4.34366	0.15691	63.858	432.293	16.9985	-0.372072	-4.12039e-17	-0.0645405	1.52738	10.3397	0.406576
8.45242	-70.0446	293.702	-8.68745	-0.00722448	-7.58685e-19	0.0472046	0.925546	-3.88087	0.114793	71.2464	470.452	20.8765	-0.369889	-4.09465e-17	-0.065606	1.72759	11.4076	0.506215
8.46241	-59.8265	246.008	-5.63469	-0.00434213	-4.46804e-19	0.0430194	0.829747	-3.41194	0.0781489	77.2281	506.147	24.4438	-0.367453	-4.06651e-17	-0.0668685	1.87857	12.312	0.594594
8.4724	-49.2838	201.121	-3.30001	-0.00243367	-2.43679e-19	0.0374516	0.717266	-2.92707	0.0480276	81.7584	539.296	27.6772	-0.364566	-4.03375e-17	-0.0682608	1.97271	13.0124	0.667809
8.48239	-38.9974	160.15	-1.67829	-0.0019123	-1.94541e-19	0.030132	0.595551	-2.44575	0.0256302	84.8476	569.852	30.5681	-0.361158	-3.99558e-17	-0.0697231	2.00634	13.4749	0.722826
8.49238	-29.54	123.799	-0.661181	-0.00327626	-3.54066e-19	0.0206023	0.48183	-2.0193	0.0107846	86.525	597.765	33.0834	-0.357277	-3.95244e-17	-0.0712469	1.9901	13.7488	0.760927
8.50237	-21.2654	92.4371	-0.103657	-0.00620318	-6.86465e-19	0.00896659	0.380258	-1.65292	0.00185355	86.9173	622.986	35.2552	-0.352992	-3.90507e-17	-0.0728243	1.92692	13.8113	0.781592
8.51237	-14.4409	66.1544	0.159715	-0.00993323	-1.10819e-18	-0.00400463	0.289707	-1.32716	-0.00320414	86.259	645.465	37.1548	-0.348334	-3.85379e-17	-0.0744229	1.82063	13.6236	0.784211
8.52236	-9.12536	44.8381	0.273676	-0.0139239	-1.5618e-18	-0.0168946	0.214659	-1.05474	-0.00643777	84.6707	665.051	38.7787	-0.343347	-3.79902e-17	-0.0760422	1.68639	13.2458	0.772355
8.53235	-5.2805	28.1736	0.290546	-0.0178318	-2.01182e-18	-0.0290421	0.148002	-0.78965	-0.00814342	82.3353	681.535	40.1019	-0.338049	-3.7409e-17	-0.0776512	1.53766	12.7281	0.748929
8.54234	-2.67094	15.7767	0.237521	-0.0214796	-2.44012e-18	-0.0403055	0.0885349	-0.522957	-0.00787323	79.4258	694.832	41.1214	-0.332427	-3.67927e-17	-0.0792188	1.38016	12.0739	0.714553
8.55233	-1.083	7.29832	0.14979	-0.0247919	-2.84154e-18	-0.0507533	0.0423415	-0.285338	-0.00585625	76.0688	704.948	41.8487	-0.326484	-3.61411e-17	-0.0807162	1.22278	11.3318	0.672703
8.56232	0	0	0	0	-3.54568e-17	0	0	0	0	72.2811	711.923	42.2867	-0.320244	-3.54568e-17	-0.0821427	1.06771	10.5163	0.624645
8.57231	0	0	0	0	-3.47411e-17	0	0	0	0	68.1878	715.848	42.3839	-0.313719	-3.47411e-17	-0.083482	0.920454	9.6631	0.572133
8.5823	0	0	0	0	-3.39987e-17	0	0	0	0	63.8606	716.982	42.0999	-0.306954	-3.39987e-17	-0.0847357	0.78425	8.805	0.517014
8.59229	0	0	0	0	-3.32384e-17	0	0	0	0	59.3347	715.599	41.4848	-0.300032	-3.32384e-17	-0.0858996	0.662087	7.98502	0.462909
8.60228	0	0	0	0	-3.24621e-17	0	0	0	0	54.6905	711.928	40.6618	-0.292971	-3.24621e-17	-0.086973	0.554188	7.21407	0.412032
8.61228	0	0	0	0	-3.16754e-17	0	0	0	0	50.0012	706.209	39.753	-0.285822	-3.16754e-17	-0.0879671	0.458382	6.47411	0.364432
8.62227	0	0	0	0	-3.08828e-17	0	0	0	0	45.3052	698.829	38.8146	-0.278631	-3.08828e-17	-0.0888912	0.37788	5.82877	0.323743
8.63226	0	0	0	0	-3.00869e-17	0	0	0	0	40.6567	690.218	37.9703	-0.271421	-3.00869e-17	-0.0897505	0.312187	5.29993	0.291559
8.64225	0	0	0	0	-2.92886e-17	0	0	0	0	36.1154	680.808	37.2905	-0.264198	-2.92886e-17	-0.0905611	0.256509	4.83543	0.264855
8.65224	0	0	0	0	-2.849e-17	0	0	0	0	31.6741	671.03	36.7738	-0.256978	-2.849e-17	-0.0913229	0.209692	4.44242	0.243454
8.66223	0	0	0	0	-2.76947e-17	0	0	0	0	27.294	661.394	36.3695	-0.249796	-2.76947e-17	-0.092027	0.17064	4.13498	0.227379
8.67222	0	0	0	0	-2.69002e-17	0	0	0	0	23.0218	652.388	36.057	-0.242626	-2.69002e-17	-0.0926472	0.137616	3.89973	0.215535
8.68221	0	0	0	0	-2.61056e-17	0	0	0	0	18.8727	644.396	35.7953	-0.235459	-2.61056e-17	-0.0931865	0.108793	3.71468	0.206345
8.6922	0	0	0	0	-2.5316e-17	0	0	0	0	14.8015	637.691	35.558	-0.228338	-2.5316e-17	-0.0936546	0.082696	3.56278	0.198662
8.7022	0	0	0	0	-2.45414e-17	0	0	0	0	10.8246	632.51	35.2941	-0.221353	-2.45414e-17	-0.0940441	0.0588465	3.43854	0.191871
8.71219	0	0	0	0	-2.37887e-17	0	0	0	0	6.95561	628.941	35.0004	-0.214564	-2.37887e-17	-0.0943485	0.03682	3.32935	0.185277
8.72218	0	0	0	0	-2.30579e-17	0	0	0	0	3.1358	626.98	34.67	-0.20797	-2.30579e-17	-0.0946042	0.0160674	3.21257	0.177645
8.73217	0	0	0	0	-2.23472e-17	0	0	0	0	-0.661062	626.559	34.3143	-0.201554	-2.23472e-17	-0.0948465	-0.00322999	3.0614	0.167662
8.74216	0	0	0	0	-2.166e-17	0	0	0	0	-4.44267	627.611	33.9794	-0.19534	-2.166e-17	-0.0950892	-0.0199906	2.82405	0.152896
8.75215	0	0	0	0	-2.09963e-17	0	0	0	0	-8.24861	629.98	33.6978	-0.18933	-2.09963e-17	-0.095343	-0.032655	2.494	0.133404
8.76214	0	0	0	0	-2.0352e-17	0	0	0	0	-12.1075	633.472	33.466	-0.183485	-2.0352e-17	-0.0956257	-0.0391635	2.04905	0.10825
8.77213	0	0	0	0	-1.97229e-17	0	0	0	0	-15.9776	637.925	33.3035	-0.177769	-1.97229e-17	-0.0959541	-0.0368253	1.47029	0.0767579
8.78212	0	0	0	0	-1.91139e-17	0	0	0	0	-19.8447	643.187	33.2152	-0.172226	-1.91139e-17	-0.0963412	-0.0243119	0.787976	0.0406923
8.79211	0	0	0	0	-1.85268e-17	0	0	0	0	-23.6669	649.03	33.2082	-0.166878	-1.85268e-17	-0.096787	-0.0015362	0.0421281	0.00215552
8.80211	0	0	0	0	-1.79619e-17	0	0	0	0	-27.3581	655.205	33.2909	-0.161727	-1.79619e-17	-0.0972937	0.0319313	-0.764729	-0.0388558
8.8121	0	0	0	0	-1.74185e-17	0	0	0	0	-30.8478	661.533	33.4989	-0.156768	-1.74185e-17	-0.097866	0.0751597	-1.6118	-0.081619
8.82209	0	0	0	0	-1.68988e-17	0	0	0	0	-34.1004	667.911	33.8821	-0.152024	-1.68988e-17	-0.0984909	0.125375	-2.45567	-0.124572
8.83208	0	0	0	0	-1.64033e-17	0	0	0	0	-37.0614	674.207	34.4405	-0.1475	-1.64033e-17	-0.0991559	0.179517	-3.26571	-0.166822
8.84207	0	0	0	0	-1.59275e-17	0	0	0	0	-39.7185	680.268	35.1664	-0.143156	-1.59275e-17	-0.0998658	0.235329	-4.03053	-0.208358
8.85206	0	0	0	0	-1.54665e-17	0	0	0	0	-42.1219	686.113	36.0629	-0.138949	-1.54665e-17	-0.100645	0.289772	-4.72002	-0.248089
8.86205	0	0	0	0	-1.50159e-17	0	0	0	0	-44.2559	691.839	37.1324	-0.134838	-1.50159e-17	-0.10148	0.340117	-5.31694	-0.285372
8.87204	0	0	0	0	-1.45703e-17	0	0	0	0	-46.11	697.498	38.3576	-0.130778	-1.45703e-17	-0.102362	0.384942	-5.82294	-0.320222
8.88203	0	0	0	0	-1.41288e-17	0	0	0	0	-47.7462	703.108	39.6663	-0.126761	-1.41288e-17	-0.103285	0.422764	-6.22559	-0.351221
8.89203	0	0	0	0	-1.36946e-17	0	0	0	0	-49.2309	708.737	41.0298	-0.122816	-1.36946e-17	-0.10422	0.454002	-6.5359	-0.378373
8.90202	0	0	0	0	-1.32642e-17	0	0	0	0	-50.5834	714.45	42.4359	-0.118911	-1.32642e-17	-0.105115	0.479027	-6.76587	-0.40187
8.91201	0	0	0	0	-1.28283e-17	0	0	0	0	-51.9073	720.223	43.831	-0.114962	-1.28283e-17	-0.105949	0.498524	-6.91711	-0.420958
8.922	0	0	0	0	-1.23785e-17	0	0	0	0	-53.3462	725.954	45.1294	-0.110895	-1.23785e-17	-0.106719	0.514942	-7.00752	-0.435626
8.93199	0	0	0	0	-1.19116e-17	0	0	0	0	-55.0269	731.592	46.3283	-0.106677	-1.19116e-17	-0.107408	0.532077	-7.07405	-0.447966
8.94198	0	0	0	0	-1.14189e-17	0	0	0	0	-57.0629	737.055	47.4633	-0.102229	-1.14189e-17	-0.107995	0.552144	-7.13179	-0.459258
8.95197	0	0	0	0	-1.08915e-17	0	0	0	0	-59.5888	742.107	48.5352	-0.0974691	-1.08915e-17	-0.108499	0.576888	-7.18445	-0.469877
8.96196	0	0	0	0	-1.03296e-17	0	0	0	0	-62.6754	746.414	49.5162	-0.0923971	-1.03296e-17	-0.108945	0.608432	-7.24595	-0.480687
8.97195	0	0	0	0	-9.74239e-18	0	0	0	0	-66.3345	749.617	50.4013	-0.0870944	-9.74239e-18	-0.109346	0.648452	-7.32787	-0.492698
8.98194	0	0	0	0	-9.13459e-18	0	0	0	0	-70.5331	751.306	51.2187	-0.0816025	-9.13459e-18	-0.109709	0.697952	-7.43446	-0.506828
8.99194	0	0	0	0	-8.50681e-18	0	0	0	0	-75.1741	750.942	51.9653	-0.0759233	-8.50681e-18	-0.110038	0.759529	-7.58721	-0.525037
9.00193	0	0	0	0	-7.86364e-18	0	0	0	0	-80.1126	747.92	52.584	-0.0700936	-7.86364e-18	-0.110317	0.838328	-7.8265	-0.550258
9.01192	-0.402077	5.53646	0.227573	-0.56502	-6.06103e-17	-0.0327907	0.00601479	-0.0828215	-0.00340433	-85.2008	741.755	52.962	-0.0642386	-7.21902e-18	-0.11053	0.936286	-8.15126	-0.582008
9.02191	-0.72015	16.8949	0.589287	-0.546416	-5.88213e-17	-0.0214117	0.0109428	-0.25672	-0.0089543	-90.2414	731.999	53.0194	-0.0584489	-6.58311e-18	-0.110661	1.05463	-8.55474	-0.619628
9.0319	-0.464133	34.3057	0.989445	-0.52678	-5.69267e-17	-0.00918195	0.00714672	-0.528239	-0.0152355	-94.9877	718.214	52.6603	-0.0527313	-5.95696e-18	-0.110696	1.1973	-9.05298	-0.663774
9.04189	0.863235	57.8308	1.32647	-0.506021	-5.49136e-17	0.00408761	-0.0134411	-0.90046	-0.020654	-99.2199	699.978	51.7702	-0.0471464	-5.34723e-18	-0.110616	1.36448	-9.62614	-0.711947
9.05188	3.76384	87.1905	1.48895	-0.4845	-5.2811e-17	0.0183319	-0.0591515	-1.37026	-0.0233999	-102.732	677.082	50.2364	-0.0418466	-4.77011e-18	-0.110407	1.54913	-10.2099	-0.757528
9.06187	8.46075	121.968	1.32077	-0.463239	-5.07097e-17	0.0331271	-0.134769	-1.94279	-0.0210382	-105.209	649.503	48.0073	-0.0369102	-4.23345e-18	-0.110051	1.73839	-10.7319	-0.793238
9.07186	14.9505	161.616	0.656838	-0.443909	-4.87832e-17	0.0475531	-0.247246	-2.67274	-0.0108625	-106.453	617.261	45.0581	-0.0324062	-3.74459e-18	-0.109528	1.92793	-11.179	-0.816033
9.08185	22.9703	205.376	-0.655504	-0.427683	-4.71562e-17	0.0607038	-0.402726	-3.60076	0.0114926	-106.227	580.481	41.3944	-0.0284447	-3.31455e-18	-0.10883	2.10052	-11.4784	-0.818526
9.09185	32.2024	252.201	-2.721	-0.414669	-4.5841e-17	0.0722465	-0.597353	-4.67831	0.0504744	-104.402	539.576	37.1424	-0.0252468	-2.96756e-18	-0.107927	2.24857	-11.6212	-0.799962
9.10184	42.2	300.814	-5.54297	-0.404528	-4.48041e-17	0.0821381	-0.827844	-5.90111	0.108737	-100.813	495.184	32.4198	-0.0229137	-2.71386e-18	-0.106782	2.35685	-11.5766	-0.75792
